<svg xmlns="http://www.w3.org/2000/svg" width="1200" height="630" viewBox="0 0 1200 630">
  <defs>
    <linearGradient id="bg2" x1="0%" y1="0%" x2="100%" y2="100%">
      <stop offset="0%" style="stop-color:#2D6A4F"/>
      <stop offset="100%" style="stop-color:#1B4332"/>
    </linearGradient>
  </defs>
  <rect width="1200" height="630" fill="url(#bg2)"/>
  <circle cx="300" cy="150" r="200" fill="#40916C" opacity="0.15"/>
  <circle cx="900" cy="500" r="180" fill="#E8883A" opacity="0.1"/>
  <g transform="translate(600, 260)">
    <ellipse cx="0" cy="50" rx="90" ry="50" fill="#1B4332" opacity="0.3"/>
    <ellipse cx="-30" cy="30" rx="50" ry="40" fill="#fff" opacity="0.9"/>
    <ellipse cx="30" cy="30" rx="50" ry="40" fill="#fff" opacity="0.9"/>
    <circle cx="-15" cy="35" r="10" fill="#E8883A"/>
    <circle cx="15" cy="35" r="10" fill="#E8883A"/>
    <circle cx="-15" cy="35" r="10" fill="#FFF" opacity="0.5"/>
    <circle cx="15" cy="35" r="10" fill="#FFF" opacity="0.5"/>
    <ellipse cx="0" cy="55" rx="40" ry="12" fill="#2D6A4F"/>
    <ellipse cx="0" cy="50" rx="30" ry="8" fill="#fff" opacity="0.3"/>
    <path d="M-55 20 Q-70 0 -45 -10" stroke="#fff" stroke-width="4" fill="none" stroke-linecap="round"/>
    <path d="M55 20 Q70 0 45 -10" stroke="#fff" stroke-width="4" fill="none" stroke-linecap="round"/>
  </g>
  <text x="600" y="430" font-family="Segoe UI, sans-serif" font-size="44" font-weight="bold" fill="#fff" text-anchor="middle" letter-spacing="1">Les bases de l'alimentation</text>
  <text x="600" y="475" font-family="Segoe UI, sans-serif" font-size="20" fill="rgba(255,255,255,0.8)" text-anchor="middle">Bien nourrir son chien pour une vie saine</text>
</svg>
