<svg xmlns="http://www.w3.org/2000/svg" width="1200" height="630" viewBox="0 0 1200 630">
  <defs>
    <linearGradient id="bg" x1="0%" y1="0%" x2="100%" y2="100%">
      <stop offset="0%" style="stop-color:#1E3A5F"/>
      <stop offset="100%" style="stop-color:#152C4A"/>
    </linearGradient>
  </defs>
  <rect width="1200" height="630" fill="url(#bg)"/>
  <circle cx="200" cy="200" r="180" fill="#E8883A" opacity="0.15"/>
  <circle cx="950" cy="450" r="250" fill="#F4A261" opacity="0.1"/>
  <g transform="translate(600, 280)">
    <ellipse cx="0" cy="60" rx="120" ry="30" fill="#2D6A4F" opacity="0.3"/>
    <ellipse cx="0" cy="55" rx="100" ry="25" fill="#40916C" opacity="0.4"/>
    <ellipse cx="0" cy="50" rx="80" ry="20" fill="#fff" opacity="0.9"/>
    <ellipse cx="-25" cy="35" rx="18" ry="14" fill="#1E3A5F"/>
    <ellipse cx="25" cy="35" rx="18" ry="14" fill="#1E3A5F"/>
    <circle cx="-25" cy="35" r="6" fill="#fff"/>
    <circle cx="25" cy="35" r="6" fill="#fff"/>
    <ellipse cx="0" cy="42" rx="6" ry="4" fill="#1E3A5F"/>
    <path d="M-15 58 Q0 72 15 58" stroke="#1E3A5F" stroke-width="3" fill="none" stroke-linecap="round"/>
    <path d="M-45 48 Q-55 40 -50 35" stroke="#E8883A" stroke-width="4" fill="none" stroke-linecap="round"/>
    <path d="M45 48 Q55 40 50 35" stroke="#E8883A" stroke-width="4" fill="none" stroke-linecap="round"/>
    <path d="M-30 50 Q-40 60 -50 55" stroke="#E8883A" stroke-width="3" fill="none" stroke-linecap="round"/>
    <path d="M30 50 Q40 60 50 55" stroke="#E8883A" stroke-width="3" fill="none" stroke-linecap="round"/>
  </g>
  <text x="600" y="460" font-family="Segoe UI, sans-serif" font-size="48" font-weight="bold" fill="#fff" text-anchor="middle" letter-spacing="2">Welcome to Dog World</text>
  <text x="600" y="510" font-family="Segoe UI, sans-serif" font-size="20" fill="rgba(255,255,255,0.8)" text-anchor="middle">Your Ultimate Guide to Canine Happiness</text>
</svg>
