<svg xmlns="http://www.w3.org/2000/svg" width="1200" height="630" viewBox="0 0 1200 630">
  <defs>
    <linearGradient id="bg" x1="0%" y1="0%" x2="100%" y2="100%">
      <stop offset="0%" style="stop-color:#1E3A5F"/>
      <stop offset="100%" style="stop-color:#152C4A"/>
    </linearGradient>
  </defs>
  <rect width="1200" height="630" fill="url(#bg)"/>
  <circle cx="150" cy="150" r="200" fill="#E8883A" opacity="0.12"/>
  <circle cx="1000" cy="500" r="250" fill="#F4A261" opacity="0.08"/>
  <circle cx="600" cy="100" r="120" fill="#fff" opacity="0.04"/>
  <!-- Dog assis -->
  <g transform="translate(300, 280)">
    <ellipse cx="0" cy="80" rx="90" ry="55" fill="#D4A373"/>
    <ellipse cx="-20" cy="70" rx="25" ry="20" fill="#C4955A"/>
    <ellipse cx="20" cy="70" rx="25" ry="20" fill="#C4955A"/>
    <ellipse cx="-30" cy="75" rx="12" ry="8" fill="#B8844A"/>
    <ellipse cx="30" cy="75" rx="12" ry="8" fill="#B8844A"/>
    <ellipse cx="0" cy="-50" rx="45" ry="40" fill="#D4A373"/>
    <ellipse cx="-15" cy="-55" rx="25" ry="22" fill="#C4955A"/>
    <ellipse cx="15" cy="-55" rx="25" ry="22" fill="#C4955A"/>
    <circle cx="-15" cy="-55" r="8" fill="#1E3A5F"/>
    <circle cx="15" cy="-55" r="8" fill="#1E3A5F"/>
    <ellipse cx="0" cy="-45" rx="8" ry="5" fill="#1E3A5F"/>
    <clipPath id="tongue1"><ellipse cx="0" cy="-30" rx="10" ry="15"/></clipPath>
    <ellipse cx="0" cy="-35" rx="8" ry="6" fill="#E8883A"/>
    <path d="M-10 -42 Q0 -25 10 -42" stroke="#1E3A5F" stroke-width="3" fill="none" stroke-linecap="round"/>
    <path d="M-55 -70 Q-70 -80 -60 -90" stroke="#E8883A" stroke-width="5" fill="none" stroke-linecap="round"/>
    <path d="M55 -70 Q70 -80 60 -90" stroke="#E8883A" stroke-width="5" fill="none" stroke-linecap="round"/>
    <g transform="rotate(-20, -85, -40)"><ellipse cx="-85" cy="-40" rx="40" ry="18" fill="#D4A373" transform="rotate(-15)"/></g>
    <g transform="rotate(20, 85, -40)"><ellipse cx="85" cy="-40" rx="40" ry="18" fill="#D4A373" transform="rotate(15)"/></g>
    <!-- queue -->
    <path d="M-80 60 Q-120 20 -110 -10" stroke="#D4A373" stroke-width="16" fill="none" stroke-linecap="round"/>
    <circle cx="-110" cy="-10" r="12" fill="#C4955A"/>
  </g>
  <!-- Icons autour -->
  <g transform="translate(700, 200)"><circle r="45" fill="#E8883A" opacity="0.2"/><text x="0" y="8" text-anchor="middle" font-size="36">🩺</text></g>
  <g transform="translate(850, 300)"><circle r="45" fill="#40916C" opacity="0.2"/><text x="0" y="8" text-anchor="middle" font-size="36">🍖</text></g>
  <g transform="translate(700, 400)"><circle r="45" fill="#F4A261" opacity="0.2"/><text x="0" y="8" text-anchor="middle" font-size="36">🎾</text></g>
  <g transform="translate(850, 200)"><circle r="45" fill="#fff" opacity="0.08"/><text x="0" y="8" text-anchor="middle" font-size="36">🐾</text></g>
  <!-- Texte -->
  <rect x="350" y="480" width="500" height="70" rx="12" fill="rgba(0,0,0,0.35)"/>
  <text x="600" y="515" font-family="Segoe UI, sans-serif" font-size="44" font-weight="bold" fill="#fff" text-anchor="middle" letter-spacing="2">Welcome to Dog World</text>
  <text x="600" y="580" font-family="Segoe UI, sans-serif" font-size="18" fill="rgba(255,255,255,0.85)" text-anchor="middle" letter-spacing="1">Your Complete Guide to Canine Happiness</text>
</svg>
